<svg id="Layer_1" data-name="Layer 1" xmlns="http://www.w3.org/2000/svg" xmlns:xlink="http://www.w3.org/1999/xlink" width="78.2" height="90" viewBox="0 0 78.2 90"><defs><style>.cls-1,.cls-2,.cls-4,.cls-5,.cls-6,.cls-7{fill:none;}.cls-2{stroke:#1d1d1b;stroke-width:0.3px;}.cls-3,.cls-4,.cls-5,.cls-6,.cls-7{stroke:#000;stroke-miterlimit:10;stroke-width:6px;}.cls-3{fill:url(#Grid_1_pica_Lines);}.cls-5{stroke-dasharray:4.67 4.67;}.cls-6{stroke-dasharray:7;}.cls-7{stroke-dasharray:6.2 6.2;}</style><pattern id="Grid_1_pica_Lines" data-name="Grid 1 pica Lines" width="72" height="72" patternUnits="userSpaceOnUse" viewBox="0 0 72 72"><rect class="cls-1" width="72" height="72"/><line class="cls-2" x1="6" y1="71.75" x2="6" y2="144.25"/><line class="cls-2" x1="30" y1="71.75" x2="30" y2="144.25"/><line class="cls-2" x1="54" y1="71.75" x2="54" y2="144.25"/><line class="cls-2" x1="18" y1="71.75" x2="18" y2="144.25"/><line class="cls-2" x1="42" y1="71.75" x2="42" y2="144.25"/><line class="cls-2" x1="66" y1="71.75" x2="66" y2="144.25"/><line class="cls-2" x1="71.75" y1="66" x2="144.25" y2="66"/><line class="cls-2" x1="71.75" y1="42" x2="144.25" y2="42"/><line class="cls-2" x1="71.75" y1="18" x2="144.25" y2="18"/><line class="cls-2" x1="71.75" y1="54" x2="144.25" y2="54"/><line class="cls-2" x1="71.75" y1="30" x2="144.25" y2="30"/><line class="cls-2" x1="71.75" y1="6" x2="144.25" y2="6"/><line class="cls-2" x1="6" y1="-0.25" x2="6" y2="72.25"/><line class="cls-2" x1="30" y1="-0.25" x2="30" y2="72.25"/><line class="cls-2" x1="54" y1="-0.25" x2="54" y2="72.25"/><line class="cls-2" x1="-0.25" y1="66" x2="72.25" y2="66"/><line class="cls-2" x1="-0.25" y1="42" x2="72.25" y2="42"/><line class="cls-2" x1="-0.25" y1="18" x2="72.25" y2="18"/><line class="cls-2" x1="-0.25" y1="54" x2="72.25" y2="54"/><line class="cls-2" x1="-0.25" y1="30" x2="72.25" y2="30"/><line class="cls-2" x1="-0.25" y1="6" x2="72.25" y2="6"/><line class="cls-2" x1="18" y1="-0.25" x2="18" y2="72.25"/><line class="cls-2" x1="42" y1="-0.25" x2="42" y2="72.25"/><line class="cls-2" x1="66" y1="-0.25" x2="66" y2="72.25"/><line class="cls-2" x1="-72.25" y1="66" x2="0.25" y2="66"/><line class="cls-2" x1="-72.25" y1="42" x2="0.25" y2="42"/><line class="cls-2" x1="-72.25" y1="18" x2="0.25" y2="18"/><line class="cls-2" x1="-72.25" y1="54" x2="0.25" y2="54"/><line class="cls-2" x1="-72.25" y1="30" x2="0.25" y2="30"/><line class="cls-2" x1="-72.25" y1="6" x2="0.25" y2="6"/><line class="cls-2" x1="6" y1="-72.25" x2="6" y2="0.25"/><line class="cls-2" x1="30" y1="-72.25" x2="30" y2="0.25"/><line class="cls-2" x1="54" y1="-72.25" x2="54" y2="0.25"/><line class="cls-2" x1="18" y1="-72.25" x2="18" y2="0.25"/><line class="cls-2" x1="42" y1="-72.25" x2="42" y2="0.25"/><line class="cls-2" x1="66" y1="-72.25" x2="66" y2="0.25"/></pattern></defs><title>ceilling</title><polygon class="cls-3" points="70 37.3 70 14.3 52 14.3 52 8.3 6 8.3 6 74.3 33 74.3 33 81.3 74 81.3 74 37.3 70 37.3"/><line class="cls-4" x1="52" y1="14.3" x2="52" y2="17.3"/><line class="cls-5" x1="52" y1="21.97" x2="52" y2="28.97"/><line class="cls-4" x1="52" y1="31.3" x2="52" y2="34.3"/><line class="cls-6" x1="69" y1="37.3" x2="36" y2="37.3"/><line class="cls-4" x1="33" y1="71.3" x2="33" y2="68.3"/><line class="cls-7" x1="33" y1="62.1" x2="33" y2="40.4"/><line class="cls-4" x1="33" y1="37.3" x2="33" y2="34.3"/></svg>