<svg id="Layer_1" data-name="Layer 1" xmlns="http://www.w3.org/2000/svg" width="78.2" height="90" viewBox="0 0 78.2 90"><title>legend</title><path d="M71.66,22.44V67.56H6.54V22.44H71.66m0-6.44H6.54A6.46,6.46,0,0,0,.1,22.44V67.56A6.46,6.46,0,0,0,6.54,74H71.66a6.46,6.46,0,0,0,6.44-6.44V22.44A6.46,6.46,0,0,0,71.66,16Z"/><rect x="26" y="54.67" width="27.45" height="6.44"/><rect x="26" y="41.78" width="39.21" height="6.44"/><rect x="26" y="28.89" width="39.21" height="6.44"/><rect x="12" y="29.3" width="9" height="6"/><circle cx="17" cy="45.3" r="3"/></svg>